<mxfile host="app.diagrams.net" agent="Mozilla/5.0 (X11; Ubuntu; Linux x86_64; rv:138.0) Gecko/20100101 Firefox/138.0" version="27.0.9">
  <diagram name="Page-1" id="xOT9WCPUrhQ1f9l60PjA">
    <mxGraphModel dx="431" dy="763" grid="1" gridSize="10" guides="1" tooltips="1" connect="1" arrows="1" fold="1" page="1" pageScale="1" pageWidth="850" pageHeight="1100" math="0" shadow="0">
      <root>
        <mxCell id="0" />
        <mxCell id="1" parent="0" />
        <mxCell id="TZ9t2vlsbiyP5KyhTJQA-20" value="" style="rounded=0;whiteSpace=wrap;html=1;dashed=1;fillColor=#e1d5e7;strokeColor=#9673a6;" vertex="1" parent="1">
          <mxGeometry x="80" y="680" width="540" height="180" as="geometry" />
        </mxCell>
        <mxCell id="TZ9t2vlsbiyP5KyhTJQA-6" style="edgeStyle=orthogonalEdgeStyle;rounded=0;orthogonalLoop=1;jettySize=auto;html=1;exitX=0.5;exitY=1;exitDx=0;exitDy=0;entryX=0.5;entryY=0;entryDx=0;entryDy=0;" edge="1" parent="1" source="TZ9t2vlsbiyP5KyhTJQA-1" target="TZ9t2vlsbiyP5KyhTJQA-2">
          <mxGeometry relative="1" as="geometry" />
        </mxCell>
        <mxCell id="TZ9t2vlsbiyP5KyhTJQA-1" value="&lt;i&gt;socket()&lt;/i&gt;" style="rounded=0;whiteSpace=wrap;html=1;fillColor=#ffe6cc;strokeColor=#d79b00;" vertex="1" parent="1">
          <mxGeometry x="120" y="200" width="120" height="40" as="geometry" />
        </mxCell>
        <mxCell id="TZ9t2vlsbiyP5KyhTJQA-7" style="edgeStyle=orthogonalEdgeStyle;rounded=0;orthogonalLoop=1;jettySize=auto;html=1;exitX=0.5;exitY=1;exitDx=0;exitDy=0;entryX=0.5;entryY=0;entryDx=0;entryDy=0;" edge="1" parent="1" source="TZ9t2vlsbiyP5KyhTJQA-2" target="TZ9t2vlsbiyP5KyhTJQA-3">
          <mxGeometry relative="1" as="geometry" />
        </mxCell>
        <mxCell id="TZ9t2vlsbiyP5KyhTJQA-2" value="&lt;i&gt;bind()&lt;/i&gt;" style="rounded=0;whiteSpace=wrap;html=1;fillColor=#ffe6cc;strokeColor=#d79b00;" vertex="1" parent="1">
          <mxGeometry x="120" y="280" width="120" height="40" as="geometry" />
        </mxCell>
        <mxCell id="TZ9t2vlsbiyP5KyhTJQA-8" style="edgeStyle=orthogonalEdgeStyle;rounded=0;orthogonalLoop=1;jettySize=auto;html=1;exitX=0.5;exitY=1;exitDx=0;exitDy=0;entryX=0.5;entryY=0;entryDx=0;entryDy=0;" edge="1" parent="1" source="TZ9t2vlsbiyP5KyhTJQA-3" target="TZ9t2vlsbiyP5KyhTJQA-4">
          <mxGeometry relative="1" as="geometry" />
        </mxCell>
        <mxCell id="TZ9t2vlsbiyP5KyhTJQA-3" value="&lt;i&gt;listen()&lt;/i&gt;" style="rounded=0;whiteSpace=wrap;html=1;fillColor=#ffe6cc;strokeColor=#d79b00;" vertex="1" parent="1">
          <mxGeometry x="120" y="360" width="120" height="40" as="geometry" />
        </mxCell>
        <mxCell id="TZ9t2vlsbiyP5KyhTJQA-4" value="&lt;i&gt;accept()&lt;/i&gt;" style="rounded=0;whiteSpace=wrap;html=1;fillColor=#ffe6cc;strokeColor=#d79b00;" vertex="1" parent="1">
          <mxGeometry x="120" y="440" width="120" height="40" as="geometry" />
        </mxCell>
        <mxCell id="TZ9t2vlsbiyP5KyhTJQA-5" value="Passive socket &lt;span style=&quot;font-weight: normal;&quot;&gt;(server)&lt;/span&gt;" style="text;html=1;align=center;verticalAlign=middle;whiteSpace=wrap;rounded=0;fontStyle=1" vertex="1" parent="1">
          <mxGeometry x="135" y="150" width="90" height="30" as="geometry" />
        </mxCell>
        <mxCell id="TZ9t2vlsbiyP5KyhTJQA-21" style="edgeStyle=orthogonalEdgeStyle;rounded=0;orthogonalLoop=1;jettySize=auto;html=1;exitX=0.5;exitY=1;exitDx=0;exitDy=0;entryX=0.5;entryY=0;entryDx=0;entryDy=0;" edge="1" parent="1" source="TZ9t2vlsbiyP5KyhTJQA-9" target="TZ9t2vlsbiyP5KyhTJQA-10">
          <mxGeometry relative="1" as="geometry" />
        </mxCell>
        <mxCell id="TZ9t2vlsbiyP5KyhTJQA-9" value="&lt;i&gt;read()&lt;/i&gt;" style="rounded=0;whiteSpace=wrap;html=1;fillColor=#ffe6cc;strokeColor=#d79b00;" vertex="1" parent="1">
          <mxGeometry x="120" y="720" width="120" height="40" as="geometry" />
        </mxCell>
        <mxCell id="TZ9t2vlsbiyP5KyhTJQA-22" style="edgeStyle=orthogonalEdgeStyle;rounded=0;orthogonalLoop=1;jettySize=auto;html=1;exitX=0.5;exitY=1;exitDx=0;exitDy=0;entryX=0.5;entryY=0;entryDx=0;entryDy=0;" edge="1" parent="1" source="TZ9t2vlsbiyP5KyhTJQA-10" target="TZ9t2vlsbiyP5KyhTJQA-11">
          <mxGeometry relative="1" as="geometry" />
        </mxCell>
        <mxCell id="TZ9t2vlsbiyP5KyhTJQA-10" value="&lt;i&gt;write()&lt;/i&gt;" style="rounded=0;whiteSpace=wrap;html=1;fillColor=#ffe6cc;strokeColor=#d79b00;" vertex="1" parent="1">
          <mxGeometry x="120" y="800" width="120" height="40" as="geometry" />
        </mxCell>
        <mxCell id="TZ9t2vlsbiyP5KyhTJQA-11" value="&lt;i&gt;close()&lt;/i&gt;" style="rounded=0;whiteSpace=wrap;html=1;fillColor=#ffe6cc;strokeColor=#d79b00;" vertex="1" parent="1">
          <mxGeometry x="120" y="880" width="120" height="40" as="geometry" />
        </mxCell>
        <mxCell id="TZ9t2vlsbiyP5KyhTJQA-23" style="edgeStyle=orthogonalEdgeStyle;rounded=0;orthogonalLoop=1;jettySize=auto;html=1;exitX=0.5;exitY=1;exitDx=0;exitDy=0;entryX=0.5;entryY=0;entryDx=0;entryDy=0;" edge="1" parent="1" source="TZ9t2vlsbiyP5KyhTJQA-12" target="TZ9t2vlsbiyP5KyhTJQA-13">
          <mxGeometry relative="1" as="geometry" />
        </mxCell>
        <mxCell id="TZ9t2vlsbiyP5KyhTJQA-12" value="&lt;i&gt;socket()&lt;/i&gt;" style="rounded=0;whiteSpace=wrap;html=1;fillColor=#d5e8d4;strokeColor=#82b366;" vertex="1" parent="1">
          <mxGeometry x="440" y="520" width="120" height="40" as="geometry" />
        </mxCell>
        <mxCell id="TZ9t2vlsbiyP5KyhTJQA-15" style="edgeStyle=orthogonalEdgeStyle;rounded=0;orthogonalLoop=1;jettySize=auto;html=1;exitX=0;exitY=0.5;exitDx=0;exitDy=0;" edge="1" parent="1" source="TZ9t2vlsbiyP5KyhTJQA-13">
          <mxGeometry relative="1" as="geometry">
            <mxPoint x="180" y="620" as="targetPoint" />
          </mxGeometry>
        </mxCell>
        <mxCell id="TZ9t2vlsbiyP5KyhTJQA-24" style="edgeStyle=orthogonalEdgeStyle;rounded=0;orthogonalLoop=1;jettySize=auto;html=1;exitX=0.5;exitY=1;exitDx=0;exitDy=0;entryX=0.5;entryY=0;entryDx=0;entryDy=0;" edge="1" parent="1" source="TZ9t2vlsbiyP5KyhTJQA-13" target="TZ9t2vlsbiyP5KyhTJQA-17">
          <mxGeometry relative="1" as="geometry" />
        </mxCell>
        <mxCell id="TZ9t2vlsbiyP5KyhTJQA-13" value="&lt;i&gt;connect()&lt;/i&gt;" style="rounded=0;whiteSpace=wrap;html=1;fillColor=#d5e8d4;strokeColor=#82b366;" vertex="1" parent="1">
          <mxGeometry x="440" y="600" width="120" height="40" as="geometry" />
        </mxCell>
        <mxCell id="TZ9t2vlsbiyP5KyhTJQA-14" value="" style="endArrow=none;html=1;rounded=0;entryX=0.5;entryY=1;entryDx=0;entryDy=0;dashed=1;" edge="1" parent="1" target="TZ9t2vlsbiyP5KyhTJQA-4">
          <mxGeometry width="50" height="50" relative="1" as="geometry">
            <mxPoint x="180" y="620" as="sourcePoint" />
            <mxPoint x="320" y="520" as="targetPoint" />
          </mxGeometry>
        </mxCell>
        <mxCell id="TZ9t2vlsbiyP5KyhTJQA-16" value="" style="endArrow=classic;html=1;rounded=0;entryX=0.5;entryY=0;entryDx=0;entryDy=0;" edge="1" parent="1" target="TZ9t2vlsbiyP5KyhTJQA-9">
          <mxGeometry width="50" height="50" relative="1" as="geometry">
            <mxPoint x="180" y="620" as="sourcePoint" />
            <mxPoint x="320" y="520" as="targetPoint" />
          </mxGeometry>
        </mxCell>
        <mxCell id="TZ9t2vlsbiyP5KyhTJQA-25" style="edgeStyle=orthogonalEdgeStyle;rounded=0;orthogonalLoop=1;jettySize=auto;html=1;exitX=0.5;exitY=1;exitDx=0;exitDy=0;entryX=0.5;entryY=0;entryDx=0;entryDy=0;" edge="1" parent="1" source="TZ9t2vlsbiyP5KyhTJQA-17" target="TZ9t2vlsbiyP5KyhTJQA-18">
          <mxGeometry relative="1" as="geometry" />
        </mxCell>
        <mxCell id="TZ9t2vlsbiyP5KyhTJQA-17" value="&lt;i&gt;write()&lt;/i&gt;" style="rounded=0;whiteSpace=wrap;html=1;fillColor=#d5e8d4;strokeColor=#82b366;" vertex="1" parent="1">
          <mxGeometry x="440" y="720" width="120" height="40" as="geometry" />
        </mxCell>
        <mxCell id="TZ9t2vlsbiyP5KyhTJQA-26" style="edgeStyle=orthogonalEdgeStyle;rounded=0;orthogonalLoop=1;jettySize=auto;html=1;exitX=0.5;exitY=1;exitDx=0;exitDy=0;entryX=0.5;entryY=0;entryDx=0;entryDy=0;" edge="1" parent="1" source="TZ9t2vlsbiyP5KyhTJQA-18" target="TZ9t2vlsbiyP5KyhTJQA-19">
          <mxGeometry relative="1" as="geometry" />
        </mxCell>
        <mxCell id="TZ9t2vlsbiyP5KyhTJQA-18" value="&lt;i&gt;read()&lt;/i&gt;" style="rounded=0;whiteSpace=wrap;html=1;fillColor=#d5e8d4;strokeColor=#82b366;" vertex="1" parent="1">
          <mxGeometry x="440" y="800" width="120" height="40" as="geometry" />
        </mxCell>
        <mxCell id="TZ9t2vlsbiyP5KyhTJQA-19" value="&lt;i&gt;close()&lt;/i&gt;" style="rounded=0;whiteSpace=wrap;html=1;fillColor=#d5e8d4;strokeColor=#82b366;" vertex="1" parent="1">
          <mxGeometry x="440" y="880" width="120" height="40" as="geometry" />
        </mxCell>
        <mxCell id="TZ9t2vlsbiyP5KyhTJQA-27" value="Active socket &lt;span style=&quot;font-weight: normal;&quot;&gt;(client)&lt;/span&gt;" style="text;html=1;align=center;verticalAlign=middle;whiteSpace=wrap;rounded=0;fontStyle=1" vertex="1" parent="1">
          <mxGeometry x="455" y="480" width="90" height="30" as="geometry" />
        </mxCell>
        <mxCell id="TZ9t2vlsbiyP5KyhTJQA-28" value="blocks until client connects" style="text;html=1;align=center;verticalAlign=middle;whiteSpace=wrap;rounded=0;fontStyle=2" vertex="1" parent="1">
          <mxGeometry x="70" y="490" width="100" height="50" as="geometry" />
        </mxCell>
        <mxCell id="TZ9t2vlsbiyP5KyhTJQA-29" value="resumes" style="text;html=1;align=center;verticalAlign=middle;whiteSpace=wrap;rounded=0;fontStyle=2" vertex="1" parent="1">
          <mxGeometry x="100" y="600" width="60" height="30" as="geometry" />
        </mxCell>
        <mxCell id="TZ9t2vlsbiyP5KyhTJQA-30" value="(possibly multiple) data transfers in either direction" style="text;html=1;align=center;verticalAlign=middle;whiteSpace=wrap;rounded=0;fontStyle=2" vertex="1" parent="1">
          <mxGeometry x="270" y="680" width="100" height="50" as="geometry" />
        </mxCell>
      </root>
    </mxGraphModel>
  </diagram>
</mxfile>
